<mxfile host="app.diagrams.net" agent="Mozilla/5.0 (Windows NT 10.0; Win64; x64) AppleWebKit/537.36 (KHTML, like Gecko) Chrome/128.0.0.0 Safari/537.36 OPR/114.0.0.0" version="25.0.3">
  <diagram id="R2lEEEUBdFMjLlhIrx00" name="Page-1">
    <mxGraphModel dx="1393" dy="788" grid="1" gridSize="10" guides="1" tooltips="1" connect="1" arrows="1" fold="1" page="1" pageScale="1" pageWidth="850" pageHeight="1100" math="0" shadow="0" extFonts="Permanent Marker^https://fonts.googleapis.com/css?family=Permanent+Marker">
      <root>
        <mxCell id="0" />
        <mxCell id="1" parent="0" />
        <mxCell id="XG73KZ5HPYdIXfggcieg-1" value="PET" style="text;html=1;align=center;verticalAlign=middle;whiteSpace=wrap;rounded=0;" vertex="1" parent="1">
          <mxGeometry x="70" y="120" width="120" height="50" as="geometry" />
        </mxCell>
        <mxCell id="XG73KZ5HPYdIXfggcieg-3" value="&lt;u&gt;pet_id&lt;/u&gt;" style="rounded=0;whiteSpace=wrap;html=1;" vertex="1" parent="1">
          <mxGeometry x="110" y="150" width="100" height="50" as="geometry" />
        </mxCell>
        <mxCell id="XG73KZ5HPYdIXfggcieg-4" value="name" style="rounded=0;whiteSpace=wrap;html=1;" vertex="1" parent="1">
          <mxGeometry x="210" y="150" width="100" height="50" as="geometry" />
        </mxCell>
        <mxCell id="XG73KZ5HPYdIXfggcieg-5" value="species" style="rounded=0;whiteSpace=wrap;html=1;" vertex="1" parent="1">
          <mxGeometry x="310" y="150" width="100" height="50" as="geometry" />
        </mxCell>
        <mxCell id="XG73KZ5HPYdIXfggcieg-6" value="breed" style="rounded=0;whiteSpace=wrap;html=1;" vertex="1" parent="1">
          <mxGeometry x="410" y="150" width="100" height="50" as="geometry" />
        </mxCell>
        <mxCell id="XG73KZ5HPYdIXfggcieg-7" value="age" style="rounded=0;whiteSpace=wrap;html=1;" vertex="1" parent="1">
          <mxGeometry x="510" y="150" width="100" height="50" as="geometry" />
        </mxCell>
        <mxCell id="XG73KZ5HPYdIXfggcieg-8" value="sex" style="rounded=0;whiteSpace=wrap;html=1;" vertex="1" parent="1">
          <mxGeometry x="610" y="150" width="100" height="50" as="geometry" />
        </mxCell>
        <mxCell id="XG73KZ5HPYdIXfggcieg-9" value="adopted" style="rounded=0;whiteSpace=wrap;html=1;" vertex="1" parent="1">
          <mxGeometry x="710" y="150" width="100" height="50" as="geometry" />
        </mxCell>
        <mxCell id="XG73KZ5HPYdIXfggcieg-10" value="claws" style="rounded=0;whiteSpace=wrap;html=1;" vertex="1" parent="1">
          <mxGeometry x="810" y="150" width="100" height="50" as="geometry" />
        </mxCell>
        <mxCell id="XG73KZ5HPYdIXfggcieg-11" value="adoption_fee" style="rounded=0;whiteSpace=wrap;html=1;" vertex="1" parent="1">
          <mxGeometry x="910" y="150" width="100" height="50" as="geometry" />
        </mxCell>
        <mxCell id="XG73KZ5HPYdIXfggcieg-12" value="description" style="rounded=0;whiteSpace=wrap;html=1;" vertex="1" parent="1">
          <mxGeometry x="1010" y="150" width="100" height="50" as="geometry" />
        </mxCell>
        <mxCell id="XG73KZ5HPYdIXfggcieg-13" value="SHELTER" style="text;html=1;align=center;verticalAlign=middle;whiteSpace=wrap;rounded=0;" vertex="1" parent="1">
          <mxGeometry x="110" y="230" width="60" height="30" as="geometry" />
        </mxCell>
        <mxCell id="XG73KZ5HPYdIXfggcieg-14" value="&lt;u&gt;shelter_id&lt;/u&gt;" style="rounded=0;whiteSpace=wrap;html=1;" vertex="1" parent="1">
          <mxGeometry x="110" y="250" width="100" height="50" as="geometry" />
        </mxCell>
        <mxCell id="XG73KZ5HPYdIXfggcieg-15" value="shelter_name" style="rounded=0;whiteSpace=wrap;html=1;" vertex="1" parent="1">
          <mxGeometry x="210" y="250" width="100" height="50" as="geometry" />
        </mxCell>
        <mxCell id="XG73KZ5HPYdIXfggcieg-16" value="address" style="rounded=0;whiteSpace=wrap;html=1;" vertex="1" parent="1">
          <mxGeometry x="310" y="250" width="100" height="50" as="geometry" />
        </mxCell>
        <mxCell id="XG73KZ5HPYdIXfggcieg-17" value="capacity" style="rounded=0;whiteSpace=wrap;html=1;" vertex="1" parent="1">
          <mxGeometry x="410" y="250" width="100" height="50" as="geometry" />
        </mxCell>
        <mxCell id="XG73KZ5HPYdIXfggcieg-18" value="ADOPTER" style="text;html=1;align=center;verticalAlign=middle;whiteSpace=wrap;rounded=0;" vertex="1" parent="1">
          <mxGeometry x="110" y="330" width="60" height="30" as="geometry" />
        </mxCell>
        <mxCell id="XG73KZ5HPYdIXfggcieg-19" value="&lt;u&gt;adopter_id&lt;/u&gt;" style="rounded=0;whiteSpace=wrap;html=1;" vertex="1" parent="1">
          <mxGeometry x="110" y="350" width="100" height="50" as="geometry" />
        </mxCell>
        <mxCell id="XG73KZ5HPYdIXfggcieg-20" value="name" style="rounded=0;whiteSpace=wrap;html=1;" vertex="1" parent="1">
          <mxGeometry x="210" y="350" width="100" height="50" as="geometry" />
        </mxCell>
        <mxCell id="XG73KZ5HPYdIXfggcieg-21" value="address" style="rounded=0;whiteSpace=wrap;html=1;" vertex="1" parent="1">
          <mxGeometry x="310" y="350" width="100" height="50" as="geometry" />
        </mxCell>
        <mxCell id="XG73KZ5HPYdIXfggcieg-22" value="email" style="rounded=0;whiteSpace=wrap;html=1;" vertex="1" parent="1">
          <mxGeometry x="410" y="350" width="100" height="50" as="geometry" />
        </mxCell>
        <mxCell id="XG73KZ5HPYdIXfggcieg-23" value="phone_number" style="rounded=0;whiteSpace=wrap;html=1;" vertex="1" parent="1">
          <mxGeometry x="510" y="350" width="100" height="50" as="geometry" />
        </mxCell>
        <mxCell id="XG73KZ5HPYdIXfggcieg-24" value="APPLICATION" style="text;html=1;align=center;verticalAlign=middle;whiteSpace=wrap;rounded=0;" vertex="1" parent="1">
          <mxGeometry x="120" y="420" width="60" height="30" as="geometry" />
        </mxCell>
        <mxCell id="XG73KZ5HPYdIXfggcieg-25" value="&lt;u&gt;application_id&lt;/u&gt;" style="rounded=0;whiteSpace=wrap;html=1;" vertex="1" parent="1">
          <mxGeometry x="110" y="440" width="100" height="50" as="geometry" />
        </mxCell>
        <mxCell id="XG73KZ5HPYdIXfggcieg-82" style="edgeStyle=orthogonalEdgeStyle;rounded=0;orthogonalLoop=1;jettySize=auto;html=1;exitX=0.5;exitY=0;exitDx=0;exitDy=0;entryX=0.5;entryY=1;entryDx=0;entryDy=0;" edge="1" parent="1" source="XG73KZ5HPYdIXfggcieg-26" target="XG73KZ5HPYdIXfggcieg-19">
          <mxGeometry relative="1" as="geometry" />
        </mxCell>
        <mxCell id="XG73KZ5HPYdIXfggcieg-26" value="adopter_id" style="rounded=0;whiteSpace=wrap;html=1;" vertex="1" parent="1">
          <mxGeometry x="210" y="440" width="100" height="50" as="geometry" />
        </mxCell>
        <mxCell id="XG73KZ5HPYdIXfggcieg-27" value="date" style="rounded=0;whiteSpace=wrap;html=1;" vertex="1" parent="1">
          <mxGeometry x="310" y="440" width="100" height="50" as="geometry" />
        </mxCell>
        <mxCell id="XG73KZ5HPYdIXfggcieg-28" value="applicant_accepted" style="rounded=0;whiteSpace=wrap;html=1;" vertex="1" parent="1">
          <mxGeometry x="410" y="440" width="100" height="50" as="geometry" />
        </mxCell>
        <mxCell id="XG73KZ5HPYdIXfggcieg-29" value="DONOR" style="text;html=1;align=center;verticalAlign=middle;whiteSpace=wrap;rounded=0;" vertex="1" parent="1">
          <mxGeometry x="110" y="720" width="60" height="30" as="geometry" />
        </mxCell>
        <mxCell id="XG73KZ5HPYdIXfggcieg-30" value="&lt;u&gt;donor_id&lt;/u&gt;" style="rounded=0;whiteSpace=wrap;html=1;" vertex="1" parent="1">
          <mxGeometry x="110" y="740" width="100" height="50" as="geometry" />
        </mxCell>
        <mxCell id="XG73KZ5HPYdIXfggcieg-31" value="name" style="rounded=0;whiteSpace=wrap;html=1;" vertex="1" parent="1">
          <mxGeometry x="210" y="740" width="100" height="50" as="geometry" />
        </mxCell>
        <mxCell id="XG73KZ5HPYdIXfggcieg-32" value="ADOPTION_EVENT" style="text;html=1;align=center;verticalAlign=middle;whiteSpace=wrap;rounded=0;" vertex="1" parent="1">
          <mxGeometry x="140" y="520" width="60" height="30" as="geometry" />
        </mxCell>
        <mxCell id="XG73KZ5HPYdIXfggcieg-33" value="&lt;u&gt;event_id&lt;/u&gt;" style="rounded=0;whiteSpace=wrap;html=1;" vertex="1" parent="1">
          <mxGeometry x="110" y="540" width="100" height="50" as="geometry" />
        </mxCell>
        <mxCell id="XG73KZ5HPYdIXfggcieg-34" value="date" style="rounded=0;whiteSpace=wrap;html=1;" vertex="1" parent="1">
          <mxGeometry x="210" y="540" width="100" height="50" as="geometry" />
        </mxCell>
        <mxCell id="XG73KZ5HPYdIXfggcieg-79" style="edgeStyle=orthogonalEdgeStyle;rounded=0;orthogonalLoop=1;jettySize=auto;html=1;exitX=0.5;exitY=0;exitDx=0;exitDy=0;entryX=0;entryY=0.5;entryDx=0;entryDy=0;" edge="1" parent="1" source="XG73KZ5HPYdIXfggcieg-35" target="XG73KZ5HPYdIXfggcieg-14">
          <mxGeometry relative="1" as="geometry">
            <Array as="points">
              <mxPoint x="360" y="510" />
              <mxPoint x="90" y="510" />
              <mxPoint x="90" y="275" />
            </Array>
          </mxGeometry>
        </mxCell>
        <mxCell id="XG73KZ5HPYdIXfggcieg-35" value="shelter_id" style="rounded=0;whiteSpace=wrap;html=1;" vertex="1" parent="1">
          <mxGeometry x="310" y="540" width="100" height="50" as="geometry" />
        </mxCell>
        <mxCell id="XG73KZ5HPYdIXfggcieg-78" style="edgeStyle=orthogonalEdgeStyle;rounded=0;orthogonalLoop=1;jettySize=auto;html=1;exitX=0.5;exitY=1;exitDx=0;exitDy=0;entryX=0;entryY=0.5;entryDx=0;entryDy=0;" edge="1" parent="1" source="XG73KZ5HPYdIXfggcieg-36" target="XG73KZ5HPYdIXfggcieg-3">
          <mxGeometry relative="1" as="geometry">
            <Array as="points">
              <mxPoint x="460" y="610" />
              <mxPoint x="70" y="610" />
              <mxPoint x="70" y="175" />
            </Array>
          </mxGeometry>
        </mxCell>
        <mxCell id="XG73KZ5HPYdIXfggcieg-36" value="pet_id" style="rounded=0;whiteSpace=wrap;html=1;" vertex="1" parent="1">
          <mxGeometry x="410" y="540" width="100" height="50" as="geometry" />
        </mxCell>
        <mxCell id="XG73KZ5HPYdIXfggcieg-80" style="edgeStyle=orthogonalEdgeStyle;rounded=0;orthogonalLoop=1;jettySize=auto;html=1;exitX=0.5;exitY=0;exitDx=0;exitDy=0;entryX=0.5;entryY=1;entryDx=0;entryDy=0;" edge="1" parent="1" source="XG73KZ5HPYdIXfggcieg-37" target="XG73KZ5HPYdIXfggcieg-19">
          <mxGeometry relative="1" as="geometry">
            <Array as="points">
              <mxPoint x="560" y="420" />
              <mxPoint x="160" y="420" />
            </Array>
          </mxGeometry>
        </mxCell>
        <mxCell id="XG73KZ5HPYdIXfggcieg-37" value="adopter_id" style="rounded=0;whiteSpace=wrap;html=1;" vertex="1" parent="1">
          <mxGeometry x="510" y="540" width="100" height="50" as="geometry" />
        </mxCell>
        <mxCell id="XG73KZ5HPYdIXfggcieg-38" value="HEALTH_RECORDS" style="text;html=1;align=center;verticalAlign=middle;whiteSpace=wrap;rounded=0;" vertex="1" parent="1">
          <mxGeometry x="140" y="610" width="60" height="30" as="geometry" />
        </mxCell>
        <mxCell id="XG73KZ5HPYdIXfggcieg-39" value="&lt;u&gt;record_id&lt;/u&gt;" style="rounded=0;whiteSpace=wrap;html=1;" vertex="1" parent="1">
          <mxGeometry x="110" y="630" width="100" height="50" as="geometry" />
        </mxCell>
        <mxCell id="XG73KZ5HPYdIXfggcieg-76" style="edgeStyle=orthogonalEdgeStyle;rounded=0;orthogonalLoop=1;jettySize=auto;html=1;exitX=0.5;exitY=1;exitDx=0;exitDy=0;entryX=0;entryY=0.5;entryDx=0;entryDy=0;" edge="1" parent="1" source="XG73KZ5HPYdIXfggcieg-40" target="XG73KZ5HPYdIXfggcieg-3">
          <mxGeometry relative="1" as="geometry">
            <Array as="points">
              <mxPoint x="260" y="700" />
              <mxPoint x="70" y="700" />
              <mxPoint x="70" y="175" />
            </Array>
          </mxGeometry>
        </mxCell>
        <mxCell id="XG73KZ5HPYdIXfggcieg-40" value="pet_id" style="rounded=0;whiteSpace=wrap;html=1;" vertex="1" parent="1">
          <mxGeometry x="210" y="630" width="100" height="50" as="geometry" />
        </mxCell>
        <mxCell id="XG73KZ5HPYdIXfggcieg-41" value="update_dateTime" style="rounded=0;whiteSpace=wrap;html=1;" vertex="1" parent="1">
          <mxGeometry x="310" y="630" width="100" height="50" as="geometry" />
        </mxCell>
        <mxCell id="XG73KZ5HPYdIXfggcieg-42" value="vaccinations" style="rounded=0;whiteSpace=wrap;html=1;" vertex="1" parent="1">
          <mxGeometry x="410" y="630" width="100" height="50" as="geometry" />
        </mxCell>
        <mxCell id="XG73KZ5HPYdIXfggcieg-43" value="records" style="rounded=0;whiteSpace=wrap;html=1;" vertex="1" parent="1">
          <mxGeometry x="510" y="630" width="100" height="50" as="geometry" />
        </mxCell>
        <mxCell id="XG73KZ5HPYdIXfggcieg-44" value="STAFF" style="text;html=1;align=center;verticalAlign=middle;whiteSpace=wrap;rounded=0;" vertex="1" parent="1">
          <mxGeometry x="790" y="230" width="60" height="30" as="geometry" />
        </mxCell>
        <mxCell id="XG73KZ5HPYdIXfggcieg-45" value="&lt;u&gt;staff_id&lt;/u&gt;" style="rounded=0;whiteSpace=wrap;html=1;" vertex="1" parent="1">
          <mxGeometry x="800" y="250" width="100" height="50" as="geometry" />
        </mxCell>
        <mxCell id="XG73KZ5HPYdIXfggcieg-46" value="name" style="rounded=0;whiteSpace=wrap;html=1;" vertex="1" parent="1">
          <mxGeometry x="900" y="250" width="100" height="50" as="geometry" />
        </mxCell>
        <mxCell id="XG73KZ5HPYdIXfggcieg-47" value="phone" style="rounded=0;whiteSpace=wrap;html=1;" vertex="1" parent="1">
          <mxGeometry x="1000" y="250" width="100" height="50" as="geometry" />
        </mxCell>
        <mxCell id="XG73KZ5HPYdIXfggcieg-48" value="email" style="rounded=0;whiteSpace=wrap;html=1;" vertex="1" parent="1">
          <mxGeometry x="1100" y="250" width="100" height="50" as="geometry" />
        </mxCell>
        <mxCell id="XG73KZ5HPYdIXfggcieg-49" value="availability" style="rounded=0;whiteSpace=wrap;html=1;" vertex="1" parent="1">
          <mxGeometry x="1200" y="250" width="100" height="50" as="geometry" />
        </mxCell>
        <mxCell id="XG73KZ5HPYdIXfggcieg-50" value="EPLOYEE" style="text;html=1;align=center;verticalAlign=middle;whiteSpace=wrap;rounded=0;" vertex="1" parent="1">
          <mxGeometry x="800" y="310" width="60" height="30" as="geometry" />
        </mxCell>
        <mxCell id="XG73KZ5HPYdIXfggcieg-71" style="edgeStyle=orthogonalEdgeStyle;rounded=0;orthogonalLoop=1;jettySize=auto;html=1;exitX=0;exitY=0.5;exitDx=0;exitDy=0;entryX=0;entryY=0.5;entryDx=0;entryDy=0;" edge="1" parent="1" source="XG73KZ5HPYdIXfggcieg-51" target="XG73KZ5HPYdIXfggcieg-45">
          <mxGeometry relative="1" as="geometry" />
        </mxCell>
        <mxCell id="XG73KZ5HPYdIXfggcieg-51" value="&lt;u&gt;staff_id&lt;/u&gt;" style="rounded=0;whiteSpace=wrap;html=1;" vertex="1" parent="1">
          <mxGeometry x="800" y="330" width="100" height="50" as="geometry" />
        </mxCell>
        <mxCell id="XG73KZ5HPYdIXfggcieg-52" value="start_date" style="rounded=0;whiteSpace=wrap;html=1;" vertex="1" parent="1">
          <mxGeometry x="900" y="330" width="100" height="50" as="geometry" />
        </mxCell>
        <mxCell id="XG73KZ5HPYdIXfggcieg-53" value="max_hours" style="rounded=0;whiteSpace=wrap;html=1;" vertex="1" parent="1">
          <mxGeometry x="1000" y="330" width="100" height="50" as="geometry" />
        </mxCell>
        <mxCell id="XG73KZ5HPYdIXfggcieg-54" value="role" style="rounded=0;whiteSpace=wrap;html=1;" vertex="1" parent="1">
          <mxGeometry x="1100" y="330" width="100" height="50" as="geometry" />
        </mxCell>
        <mxCell id="XG73KZ5HPYdIXfggcieg-74" style="edgeStyle=orthogonalEdgeStyle;rounded=0;orthogonalLoop=1;jettySize=auto;html=1;exitX=0;exitY=0.5;exitDx=0;exitDy=0;entryX=0;entryY=0.5;entryDx=0;entryDy=0;" edge="1" parent="1" source="XG73KZ5HPYdIXfggcieg-55" target="XG73KZ5HPYdIXfggcieg-45">
          <mxGeometry relative="1" as="geometry" />
        </mxCell>
        <mxCell id="XG73KZ5HPYdIXfggcieg-55" value="&lt;u&gt;staff_id&lt;/u&gt;" style="rounded=0;whiteSpace=wrap;html=1;" vertex="1" parent="1">
          <mxGeometry x="800" y="410" width="100" height="50" as="geometry" />
        </mxCell>
        <mxCell id="XG73KZ5HPYdIXfggcieg-56" value="specialization" style="rounded=0;whiteSpace=wrap;html=1;" vertex="1" parent="1">
          <mxGeometry x="900" y="410" width="100" height="50" as="geometry" />
        </mxCell>
        <mxCell id="XG73KZ5HPYdIXfggcieg-57" value="session_types" style="rounded=0;whiteSpace=wrap;html=1;" vertex="1" parent="1">
          <mxGeometry x="1000" y="410" width="100" height="50" as="geometry" />
        </mxCell>
        <mxCell id="XG73KZ5HPYdIXfggcieg-58" value="certification_level" style="rounded=0;whiteSpace=wrap;html=1;" vertex="1" parent="1">
          <mxGeometry x="1100" y="410" width="100" height="50" as="geometry" />
        </mxCell>
        <mxCell id="XG73KZ5HPYdIXfggcieg-59" value="TRAINER" style="text;html=1;align=center;verticalAlign=middle;whiteSpace=wrap;rounded=0;" vertex="1" parent="1">
          <mxGeometry x="800" y="390" width="60" height="30" as="geometry" />
        </mxCell>
        <mxCell id="XG73KZ5HPYdIXfggcieg-73" style="edgeStyle=orthogonalEdgeStyle;rounded=0;orthogonalLoop=1;jettySize=auto;html=1;exitX=0;exitY=0.5;exitDx=0;exitDy=0;entryX=0;entryY=0.5;entryDx=0;entryDy=0;" edge="1" parent="1" source="XG73KZ5HPYdIXfggcieg-60" target="XG73KZ5HPYdIXfggcieg-45">
          <mxGeometry relative="1" as="geometry" />
        </mxCell>
        <mxCell id="XG73KZ5HPYdIXfggcieg-60" value="&lt;u&gt;staff_id&lt;/u&gt;" style="rounded=0;whiteSpace=wrap;html=1;" vertex="1" parent="1">
          <mxGeometry x="800" y="490" width="100" height="50" as="geometry" />
        </mxCell>
        <mxCell id="XG73KZ5HPYdIXfggcieg-61" value="preffered_tasks" style="rounded=0;whiteSpace=wrap;html=1;" vertex="1" parent="1">
          <mxGeometry x="900" y="490" width="100" height="50" as="geometry" />
        </mxCell>
        <mxCell id="XG73KZ5HPYdIXfggcieg-62" value="VOLUNTEER" style="text;html=1;align=center;verticalAlign=middle;whiteSpace=wrap;rounded=0;" vertex="1" parent="1">
          <mxGeometry x="800" y="470" width="60" height="30" as="geometry" />
        </mxCell>
        <mxCell id="XG73KZ5HPYdIXfggcieg-63" value="&lt;u&gt;session_id&lt;/u&gt;" style="rounded=0;whiteSpace=wrap;html=1;" vertex="1" parent="1">
          <mxGeometry x="660" y="590" width="100" height="50" as="geometry" />
        </mxCell>
        <mxCell id="XG73KZ5HPYdIXfggcieg-83" style="edgeStyle=orthogonalEdgeStyle;rounded=0;orthogonalLoop=1;jettySize=auto;html=1;exitX=0.5;exitY=1;exitDx=0;exitDy=0;entryX=0;entryY=0.5;entryDx=0;entryDy=0;" edge="1" parent="1" source="XG73KZ5HPYdIXfggcieg-64" target="XG73KZ5HPYdIXfggcieg-3">
          <mxGeometry relative="1" as="geometry">
            <Array as="points">
              <mxPoint x="810" y="700" />
              <mxPoint x="70" y="700" />
              <mxPoint x="70" y="175" />
            </Array>
          </mxGeometry>
        </mxCell>
        <mxCell id="XG73KZ5HPYdIXfggcieg-64" value="pet_id" style="rounded=0;whiteSpace=wrap;html=1;" vertex="1" parent="1">
          <mxGeometry x="760" y="590" width="100" height="50" as="geometry" />
        </mxCell>
        <mxCell id="XG73KZ5HPYdIXfggcieg-75" style="edgeStyle=orthogonalEdgeStyle;rounded=0;orthogonalLoop=1;jettySize=auto;html=1;exitX=0.5;exitY=0;exitDx=0;exitDy=0;entryX=0;entryY=0.5;entryDx=0;entryDy=0;" edge="1" parent="1" source="XG73KZ5HPYdIXfggcieg-65" target="XG73KZ5HPYdIXfggcieg-45">
          <mxGeometry relative="1" as="geometry">
            <Array as="points">
              <mxPoint x="910" y="570" />
              <mxPoint x="780" y="570" />
              <mxPoint x="780" y="275" />
            </Array>
          </mxGeometry>
        </mxCell>
        <mxCell id="XG73KZ5HPYdIXfggcieg-65" value="staff_id" style="rounded=0;whiteSpace=wrap;html=1;" vertex="1" parent="1">
          <mxGeometry x="860" y="590" width="100" height="50" as="geometry" />
        </mxCell>
        <mxCell id="XG73KZ5HPYdIXfggcieg-84" style="edgeStyle=orthogonalEdgeStyle;rounded=0;orthogonalLoop=1;jettySize=auto;html=1;exitX=0.5;exitY=1;exitDx=0;exitDy=0;entryX=0.5;entryY=1;entryDx=0;entryDy=0;" edge="1" parent="1" source="XG73KZ5HPYdIXfggcieg-66" target="XG73KZ5HPYdIXfggcieg-14">
          <mxGeometry relative="1" as="geometry">
            <Array as="points">
              <mxPoint x="1010" y="660" />
              <mxPoint x="640" y="660" />
              <mxPoint x="640" y="320" />
              <mxPoint x="160" y="320" />
            </Array>
          </mxGeometry>
        </mxCell>
        <mxCell id="XG73KZ5HPYdIXfggcieg-66" value="shelter_id" style="rounded=0;whiteSpace=wrap;html=1;" vertex="1" parent="1">
          <mxGeometry x="960" y="590" width="100" height="50" as="geometry" />
        </mxCell>
        <mxCell id="XG73KZ5HPYdIXfggcieg-67" value="date" style="rounded=0;whiteSpace=wrap;html=1;" vertex="1" parent="1">
          <mxGeometry x="1060" y="590" width="100" height="50" as="geometry" />
        </mxCell>
        <mxCell id="XG73KZ5HPYdIXfggcieg-68" value="time" style="rounded=0;whiteSpace=wrap;html=1;" vertex="1" parent="1">
          <mxGeometry x="1160" y="590" width="100" height="50" as="geometry" />
        </mxCell>
        <mxCell id="XG73KZ5HPYdIXfggcieg-69" value="description" style="rounded=0;whiteSpace=wrap;html=1;" vertex="1" parent="1">
          <mxGeometry x="1260" y="590" width="100" height="50" as="geometry" />
        </mxCell>
        <mxCell id="XG73KZ5HPYdIXfggcieg-70" value="TRAINING" style="text;html=1;align=center;verticalAlign=middle;whiteSpace=wrap;rounded=0;" vertex="1" parent="1">
          <mxGeometry x="630" y="560" width="120" height="50" as="geometry" />
        </mxCell>
      </root>
    </mxGraphModel>
  </diagram>
</mxfile>
